<?xml version="1.0" encoding="UTF-8" standalone="no"?>
<svg
   xmlns:dc="http://purl.org/dc/elements/1.1/"
   xmlns:cc="http://creativecommons.org/ns#"
   xmlns:rdf="http://www.w3.org/1999/02/22-rdf-syntax-ns#"
   xmlns:svg="http://www.w3.org/2000/svg"
   xmlns="http://www.w3.org/2000/svg"
   xmlns:sodipodi="http://sodipodi.sourceforge.net/DTD/sodipodi-0.dtd"
   xmlns:inkscape="http://www.inkscape.org/namespaces/inkscape"
   viewBox="0 0 696.56 533.3"
   version="1.1"
   id="svg4512"
   width="696.56"
   height="533.3"
   sodipodi:docname="NEW_keating_floor_maps_01_2020_floor_2_art_track.svg"
   inkscape:version="0.92.3 (2405546, 2018-03-11)">
  <metadata
     id="metadata4516">
    <rdf:RDF>
      <cc:Work
         rdf:about="">
        <dc:format>image/svg+xml</dc:format>
        <dc:type
           rdf:resource="http://purl.org/dc/dcmitype/StillImage" />
      </cc:Work>
    </rdf:RDF>
  </metadata>
  <sodipodi:namedview
     pagecolor="#ffffff"
     bordercolor="#666666"
     borderopacity="1"
     objecttolerance="10"
     gridtolerance="10"
     guidetolerance="10"
     inkscape:pageopacity="0"
     inkscape:pageshadow="2"
     inkscape:window-width="640"
     inkscape:window-height="480"
     id="namedview4514"
     showgrid="false"
     inkscape:zoom="0.62582863"
     inkscape:cx="346.21264"
     inkscape:cy="228.54744"
     inkscape:window-x="327"
     inkscape:window-y="137"
     inkscape:window-maximized="0"
     inkscape:current-layer="Layer_6" />
  <defs
     id="defs4394">
    <style
       id="style4392">.cls-1{fill:#378dbd;}.cls-2,.cls-4,.cls-5{fill:none;stroke:#0c234b;stroke-miterlimit:10;}.cls-2{stroke-width:0.88px;}.cls-3{fill:#ee4156;}.cls-4{stroke-width:1.05px;}.cls-5{stroke-width:0.86px;}</style>
  </defs>
  <title
     id="title4396">NEW_keating_floor_maps_01_2020</title>
  <g
     id="Layer_6"
     data-name="Layer 6">
    <polygon
       class="cls-1"
       points="46.79,504.54 46.79,346.49 324.93,346.49 321.31,31.81 669.65,31.81 669.65,504.54 "
       id="polygon4398"
       transform="translate(-8.25,-8.26)"
       style="fill:#378dbd" />
    <polygon
       class="cls-2"
       points="661.39 496.28 38.54 496.28 38.54 338.23 316.68 338.23 313.05 23.55 661.39 23.55 661.39 496.28"
       id="polygon4400" />
    <g
       id="Barbara_Rogers_A_Clear_Day_In_The_Valley"
       data-name="Barbara Rogers A Clear Day In The Valley">
      <circle
         class="cls-3"
         cx="554.77"
         cy="283.91"
         r="12.89"
         id="circle4402" />
    </g>
    <polygon
       class="cls-2"
       points="476.33 214.81 405.03 235.15 468.74 326.54 475.84 326.54 476.33 214.81"
       id="polygon4405" />
    <polyline
       class="cls-4"
       points="468.74 326.54 377.83 327.76 366.07 313.06 375.14 304.73 375.14 242.99 385.19 240.05 445.95 326.54"
       id="polyline4407" />
    <polyline
       class="cls-4"
       points="385.19 240.05 375.87 226.57 391.06 215.79 405.03 235.15"
       id="polyline4409" />
    <line
       class="cls-4"
       x1="458.04"
       y1="326.46"
       x2="398.91"
       y2="242.99"
       id="line4411" />
    <line
       class="cls-4"
       x1="391.31"
       y1="248.38"
       x2="406.26"
       y2="237.6"
       id="line4413" />
    <line
       class="cls-4"
       x1="431.78"
       y1="306.85"
       x2="446.72"
       y2="296.07"
       id="line4415" />
    <line
       class="cls-4"
       x1="429.91"
       y1="303.82"
       x2="444.85"
       y2="293.04"
       id="line4417" />
    <line
       class="cls-4"
       x1="427.76"
       y1="301.07"
       x2="442.7"
       y2="290.29"
       id="line4419" />
    <line
       class="cls-4"
       x1="425.92"
       y1="298.04"
       x2="440.87"
       y2="287.26"
       id="line4421" />
    <line
       class="cls-4"
       x1="405.03"
       y1="268.78"
       x2="419.98"
       y2="258"
       id="line4423" />
    <line
       class="cls-4"
       x1="407.32"
       y1="271.38"
       x2="422.26"
       y2="260.6"
       id="line4425" />
    <line
       class="cls-4"
       x1="408.99"
       y1="274.17"
       x2="423.94"
       y2="263.39"
       id="line4427" />
    <line
       class="cls-4"
       x1="410.91"
       y1="277.15"
       x2="425.85"
       y2="266.37"
       id="line4429" />
    <line
       class="cls-4"
       x1="413.01"
       y1="279.83"
       x2="427.95"
       y2="269.04"
       id="line4431" />
    <line
       class="cls-4"
       x1="415.42"
       y1="282.54"
       x2="430.36"
       y2="271.76"
       id="line4433" />
    <line
       class="cls-4"
       x1="417.4"
       y1="285.75"
       x2="432.35"
       y2="274.97"
       id="line4435" />
    <line
       class="cls-4"
       x1="399.2"
       y1="259.58"
       x2="414.15"
       y2="248.8"
       id="line4437" />
    <line
       class="cls-4"
       x1="403.43"
       y1="265.5"
       x2="418.38"
       y2="254.72"
       id="line4439" />
    <line
       class="cls-4"
       x1="401.11"
       y1="262.6"
       x2="416.05"
       y2="251.82"
       id="line4441" />
    <line
       class="cls-4"
       x1="397.18"
       y1="257.21"
       x2="412.12"
       y2="246.43"
       id="line4443" />
    <line
       class="cls-4"
       x1="395.5"
       y1="254.19"
       x2="410.45"
       y2="243.41"
       id="line4445" />
    <line
       class="cls-4"
       x1="393.29"
       y1="251.16"
       x2="408.23"
       y2="240.38"
       id="line4447" />
    <line
       class="cls-4"
       x1="451.1"
       y1="327.03"
       x2="463.47"
       y2="318.38"
       id="line4449" />
    <line
       class="cls-4"
       x1="439.96"
       y1="317.81"
       x2="454.91"
       y2="307.03"
       id="line4451" />
    <line
       class="cls-4"
       x1="436.15"
       y1="312.42"
       x2="451.1"
       y2="301.64"
       id="line4453" />
    <line
       class="cls-4"
       x1="434.17"
       y1="309.38"
       x2="449.11"
       y2="298.6"
       id="line4455" />
    <line
       class="cls-4"
       x1="442.23"
       y1="320.72"
       x2="457.18"
       y2="309.94"
       id="line4457" />
    <line
       class="cls-4"
       x1="443.93"
       y1="323.77"
       x2="458.88"
       y2="312.99"
       id="line4459" />
    <line
       class="cls-4"
       x1="446.3"
       y1="326.46"
       x2="461.24"
       y2="315.68"
       id="line4461" />
    <line
       class="cls-4"
       x1="438.26"
       y1="315.14"
       x2="453.2"
       y2="304.36"
       id="line4463" />
    <line
       class="cls-4"
       x1="413.85"
       y1="299.59"
       x2="377.83"
       y2="327.76"
       id="line4465" />
    <line
       class="cls-4"
       x1="391.8"
       y1="291.75"
       x2="375.14"
       y2="304.73"
       id="line4467" />
    <line
       class="cls-4"
       x1="419.98"
       y1="301.79"
       x2="385.67"
       y2="289.54"
       id="line4469" />
    <line
       class="cls-4"
       x1="401.11"
       y1="294.93"
       x2="384.2"
       y2="309.63"
       id="line4471" />
    <line
       class="cls-4"
       x1="391.08"
       y1="316.77"
       x2="379.32"
       y2="302.31"
       id="line4473" />
    <line
       class="cls-4"
       x1="410.91"
       y1="302.16"
       x2="405.48"
       y2="296.61"
       id="line4475" />
    <line
       class="cls-4"
       x1="408.58"
       y1="304.73"
       x2="401.11"
       y2="294.93"
       id="line4477" />
    <line
       class="cls-4"
       x1="405.84"
       y1="306.84"
       x2="394.08"
       y2="292.39"
       id="line4479" />
    <line
       class="cls-4"
       x1="402.84"
       y1="307.84"
       x2="391.08"
       y2="293.38"
       id="line4481" />
    <line
       class="cls-4"
       x1="400.13"
       y1="310.12"
       x2="388.37"
       y2="295.67"
       id="line4483" />
    <line
       class="cls-4"
       x1="396.96"
       y1="311.96"
       x2="385.2"
       y2="297.5"
       id="line4485" />
    <line
       class="cls-4"
       x1="394.25"
       y1="314.04"
       x2="382.49"
       y2="299.59"
       id="line4487" />
    <path
       class="cls-4"
       d="M470.2,325.77c.37-2,5-28.75-13-44.31-8.87-7.66-25.76-14.79-36.36-7.3-8.66,6.12-8.71,18.85-8.72,22.49-.07,16.7,11.51,27.66,14,29.89"
       id="path4489" />
    <rect
       class="cls-2"
       x="513.96"
       y="267.02"
       width="71.86"
       height="42.73"
       id="rect4491" />
    <rect
       class="cls-2"
       x="585.86"
       y="267.02"
       width="42.73"
       height="42.73"
       id="rect4493" />
    <rect
       class="cls-2"
       x="513.96"
       y="218.12"
       width="114.63"
       height="48.89"
       id="rect4495" />
    <rect
       class="cls-2"
       x="507.92"
       y="349.49"
       width="113.96"
       height="122.03"
       id="rect4497" />
    <rect
       class="cls-2"
       x="333.25"
       y="355.78"
       width="153.83"
       height="112.98"
       id="rect4499" />
    <rect
       class="cls-2"
       x="516.1"
       y="57.49"
       width="112.98"
       height="143.16"
       id="rect4501" />
    <rect
       class="cls-2"
       x="371.46"
       y="98.45"
       width="112.98"
       height="92.13"
       id="rect4503" />
    <rect
       class="cls-2"
       x="362.63"
       y="38.19"
       width="121.64"
       height="43.25"
       id="rect4505" />
    <rect
       class="cls-5"
       x="53.3"
       y="355.78"
       width="147.97"
       height="112.98"
       id="rect4507" />
    <rect
       class="cls-2"
       x="217.25"
       y="355.78"
       width="100.53"
       height="112.98"
       id="rect4509" />
  </g>
</svg>
