<svg id="Layer_6" data-name="Layer 6" xmlns="http://www.w3.org/2000/svg" viewBox="0 0 637.11 375.4"><defs><style>.cls-1{fill:#378dbd;}.cls-2{fill:none;stroke:#0c234b;stroke-miterlimit:10;stroke-width:0.74px;}.cls-3{fill:#ef4056;}</style></defs><title>NEW_keating_floor_maps_01_2020_floor_1_art_track</title><polygon class="cls-1" points="607.36 222.32 316.09 222.32 315.53 360.18 30.04 360.18 30.04 34.06 607.36 34.06 607.36 222.32"/><polyline class="cls-2" points="162.14 23.55 162.14 87.35 263.16 87.35 263.16 351.91"/><polyline class="cls-2" points="429.49 23.55 429.49 85.67 429.49 211.81"/><polyline class="cls-2" points="305.58 211.57 305.58 87.1 430.05 87.1"/><polygon class="cls-2" points="596.85 211.81 305.58 211.81 305.02 349.67 19.53 349.67 19.53 23.55 596.85 23.55 596.85 211.81"/><circle class="cls-3" cx="183.35" cy="66.7" r="10.88"/><circle class="cls-3" cx="236.64" cy="295.27" r="10.88"/><circle class="cls-3" cx="350.19" cy="181.69" r="10.88"/><circle class="cls-3" cx="472.59" cy="87.1" r="10.88"/><circle class="cls-3" cx="541.8" cy="112.33" r="10.88"/></svg>