<?xml version="1.0" encoding="UTF-8" standalone="no"?>
<!-- Created with Inkscape (http://www.inkscape.org/) -->

<svg
   xmlns:dc="http://purl.org/dc/elements/1.1/"
   xmlns:cc="http://creativecommons.org/ns#"
   xmlns:rdf="http://www.w3.org/1999/02/22-rdf-syntax-ns#"
   xmlns:svg="http://www.w3.org/2000/svg"
   xmlns="http://www.w3.org/2000/svg"
   xmlns:sodipodi="http://sodipodi.sourceforge.net/DTD/sodipodi-0.dtd"
   xmlns:inkscape="http://www.inkscape.org/namespaces/inkscape"
   width="130.61682mm"
   height="96.583344mm"
   viewBox="0 0 130.61682 96.583344"
   version="1.1"
   id="svg8"
   inkscape:version="0.92.3 (2405546, 2018-03-11)"
   sodipodi:docname="audio_icon.svg">
  <defs
     id="defs2" />
  <sodipodi:namedview
     id="base"
     pagecolor="#ffffff"
     bordercolor="#666666"
     borderopacity="1.0"
     inkscape:pageopacity="0.0"
     inkscape:pageshadow="2"
     inkscape:zoom="0.98994949"
     inkscape:cx="370.08424"
     inkscape:cy="194.43929"
     inkscape:document-units="mm"
     inkscape:current-layer="layer1"
     showgrid="false"
     inkscape:window-width="1366"
     inkscape:window-height="713"
     inkscape:window-x="2560"
     inkscape:window-y="699"
     inkscape:window-maximized="1" />
  <metadata
     id="metadata5">
    <rdf:RDF>
      <cc:Work
         rdf:about="">
        <dc:format>image/svg+xml</dc:format>
        <dc:type
           rdf:resource="http://purl.org/dc/dcmitype/StillImage" />
        <dc:title></dc:title>
      </cc:Work>
    </rdf:RDF>
  </metadata>
  <g
     inkscape:label="Layer 1"
     inkscape:groupmode="layer"
     id="layer1"
     transform="translate(-110.47939,10.554294)">
    <path
       id="path49-3-6"
       style="fill:#000000;stroke-width:0.23070902"
       d="m 151.42416,74.147227 c 3.83359,-2.354123 3.12034,-2.058455 -0.82688,-6.011229 -5.86188,-6.396347 -9.61791,-13.412127 -11.48898,-21.45995 -0.81942,-3.524483 -1.13823,-10.238348 -0.66099,-13.91988 1.20843,-9.322068 5.72779,-17.516196 12.54628,-25.6631746 3.92662,-4.2107769 3.40242,-4.0806221 -1.78966,-6.68527439 -2.33083,-1.24150157 -2.02068,-0.69432827 -7.82156,5.49961429 -8.58562,9.1673877 -11.88087,20.3405937 -11.88087,32.1020317 0,12.480667 4.77872,24.450378 14.2727,34.534647 3.25193,3.454116 2.40878,3.980997 7.64996,1.603215 z m 9.83351,-13.619776 c 2.23567,-1.473522 1.81971,-1.288453 -0.48222,-3.762618 -3.41852,-4.003676 -5.60896,-8.395075 -6.70012,-13.43246 -0.47787,-2.206086 -0.66379,-6.408505 -0.38548,-8.712892 0.70473,-5.834976 3.34033,-10.963939 7.31672,-16.06339 2.28992,-2.635657 1.98422,-2.554189 -1.04369,-4.184523 -1.35929,-0.777095 -1.17842,-0.434602 -4.56136,3.442381 -5.00696,5.738157 -6.92868,12.731819 -6.92868,20.093674 0,7.812043 2.78685,15.304261 8.32354,21.616323 1.89645,2.16204 1.40474,2.491833 4.46129,1.003505 z m -26.82498,23.641877 c 4.18869,-3.002116 3.40936,-2.625061 -0.90348,-7.665868 -6.40484,-8.156993 -10.50878,-17.103924 -12.55316,-27.366972 -0.89532,-4.494628 -1.24366,-13.056537 -0.72222,-17.751439 1.32037,-11.888039 6.25835,-22.3376681 13.70841,-32.7271659 4.29032,-5.369825 3.71757,-5.2038442 -1.95543,-8.5254477 -2.54674,-1.5832344 -2.20786,-0.8854484 -8.54605,7.0134253 -9.38088,11.690783 -12.98137,25.9395053 -12.98137,40.9383703 0,15.916072 5.22137,31.180537 15.59475,44.040581 3.55314,4.40489 2.63189,5.0768 8.35855,2.044516 z m 41.52677,0.848306 c 0.60127,-0.420008 13.98488,-9.419192 23.85656,-14.430537 l 22.71009,-11.528733 c 15.58586,-0.3609 14.85254,-0.07169 15.58586,-0.3609 1.16669,-0.460126 2.32747,-1.759492 2.69858,-3.020753 0.36525,-1.241356 0.38766,-34.409493 0.0243,-35.888498 -0.30986,-1.261041 -1.01936,-2.205472 -2.25154,-2.997039 -0.92668,-0.595312 0,0 -16.03182,-0.595312 L 197.71138,4.2234654 c -7.39594,-3.5646898 -14.8363,-8.1094797 -16.96013,-9.8557298 -5.36536,-4.4115026 -7.52551,-4.6923986 -9.46323,-4.5698666 -1.87797,0.118755 -1.43301,0.8571807 -2.23288,2.3370834 -0.54974,1.0171373 -0.55576,1.5891011 -0.48419,45.9958446 0.0725,44.965901 0.0725,44.965901 0.65887,45.71288 1.06421,1.355664 0.59516,1.937605 2.35624,1.937605 1.32255,0 3.46883,-0.131768 4.37341,-0.763648 z"
       inkscape:connector-curvature="0" />
  </g>
</svg>
