<?xml version="1.0" encoding="UTF-8" standalone="no"?>
<svg
   xmlns:dc="http://purl.org/dc/elements/1.1/"
   xmlns:cc="http://creativecommons.org/ns#"
   xmlns:rdf="http://www.w3.org/1999/02/22-rdf-syntax-ns#"
   xmlns:svg="http://www.w3.org/2000/svg"
   xmlns="http://www.w3.org/2000/svg"
   xmlns:sodipodi="http://sodipodi.sourceforge.net/DTD/sodipodi-0.dtd"
   xmlns:inkscape="http://www.inkscape.org/namespaces/inkscape"
   viewBox="0 0 901.30608 963.68957"
   version="1.1"
   id="svg17"
   sodipodi:docname="tri_map.svg"
   width="901.30609"
   height="963.68958"
   inkscape:version="0.92.3 (2405546, 2018-03-11)">
  <metadata
     id="metadata21">
    <rdf:RDF>
      <cc:Work
         rdf:about="">
        <dc:format>image/svg+xml</dc:format>
        <dc:type
           rdf:resource="http://purl.org/dc/dcmitype/StillImage" />
      </cc:Work>
    </rdf:RDF>
  </metadata>
  <sodipodi:namedview
     pagecolor="#ffffff"
     bordercolor="#666666"
     borderopacity="1"
     objecttolerance="10"
     gridtolerance="10"
     guidetolerance="10"
     inkscape:pageopacity="0"
     inkscape:pageshadow="2"
     inkscape:window-width="1920"
     inkscape:window-height="1052"
     id="namedview19"
     showgrid="false"
     inkscape:zoom="0.68009047"
     inkscape:cx="253.15053"
     inkscape:cy="641.70091"
     inkscape:window-x="502"
     inkscape:window-y="0"
     inkscape:window-maximized="1"
     inkscape:current-layer="svg17" />
  <defs
     id="defs4">
    <style
       id="style2">.cls-1{fill:#378dbd;}.cls-2{fill:none;stroke:#0c234b;stroke-miterlimit:10;stroke-width:0.74px;}.cls-3{fill:#ef4056;}</style>
  </defs>
  <title
     id="title6">tri_building_complex_april_2020_DS_rev2</title>
  <rect
     style="fill:#ffffff;fill-opacity:1;stroke:#ffffff;stroke-width:8.64291096;stroke-miterlimit:4;stroke-dasharray:none"
     id="rect401"
     width="892.66321"
     height="955.04669"
     x="4.3214555"
     y="4.3214555" />
  <path
     style="fill:#378dbd"
     inkscape:connector-curvature="0"
     d="m 738.10806,415.3898 v -145.49 h 74.79 v -88.56 l 48.74,-0.37 V 26.179801 h -667.93 v 14.51 h -39.6 v 0.1 l -114.39,0.27 V 410.6298 h 129.14 v 135.7 h -74.2 l 0.39,356.85 h 59.44 v 26.28 l 102.59,0.81 v -100.72 l -0.25,-3.7 h 119.51 l -0.86,85.38 h 28 v 26.23 h 315.63 v -19.5 l 123.21,0.18 0.24,-18.6 0.06,-33.11 h 16.38 v -315.56 l -52.58,0.33 v -3.48 h -67.58 l -0.12,-26.93 h -49.26 v -105.4 z m -76,105.48 h -0.21 -25.74 l -0.23,26.68 -43.54,0.11 h -9.49 l -23.12,0.06 -0.23,45.69 -79.86,-0.81 0.19,44.56 -76.43,0.2 v 78.69 l -26,0.35 -0.62,60.47 h -121.13 v -152.91 h 27.32 v -77.63 h -59.44 v -135.7 h 28.74 v -144.45 h -28.47 l 0.14,-77.52 59.94,-0.42 2.44,137.1 h 73.11 v -20.09 h 72.56 v -16 h 73.12 v -19.35 h 68.09 v 113.49 h 62.86 v 32 h 26 z"
     class="cls-1"
     id="Tri-buidling_complex" />
  <path
     style="fill:none;stroke:#0c234b;stroke-width:0.74000001px;stroke-miterlimit:10"
     inkscape:connector-curvature="0"
     d="m 738.09806,415.4298 v -145.49 h 74.79 v -88.56 l 48.74,-0.37 V 26.219801 h -667.9 v 14.51 h -39.65 v 0.1 l -114.4,0.28 V 410.6798 h 129.2 v 135.69 h -74.2 l 0.38,356.86 h 59.48 v 26.28 l 102.59,0.81 v -100.77 l -0.25,-3.7 h 119.48 l -0.82,85.39 h 28 v 26.23 h 315.6 v -19.46 l 123.21,0.18 0.24,-18.6 0.07,-33.11 h 16.38 v -315.57 l -52.58,0.33 v -3.48 h -67.61 l -0.12,-26.93 -49.26,0.06 v -105.46 z m -76,105.49 h -0.22 -25.74 l -0.2,26.62 -43.55,0.11 h -9.49 l -23.12,0.06 -0.23,45.7 -79.85,-0.82 0.18,44.57 -76.42,0.2 v 78.68 l -26,0.35 -0.61,60.48 h -121.13 v -152.86 h 27.31 v -77.64 h -59.43 v -135.69 h 28.73 v -144.46 h -28.46 l 0.13,-77.52 60,-0.42 2.43,137.1 h 73.11 v -20.09 h 72.56 v -16 h 73.12 v -19.35 h 68.09 v 113.49 h 62.89 v 32 h 26 z"
     class="cls-2"
     id="Tri-buidling_complex_outline" />
  <circle
     r="10.88"
     cy="765.90906"
     cx="681.75037"
     class="cls-3"
     data-name="Logan_Beers"
     id="Logan_Beers"
     />
  <circle
     r="10.88"
     cy="738.12903"
     cx="835.79034"
     class="cls-3"
     data-name="Ryan_Hunt"
     id="Ryan_Hunt"
     />
  <circle
     r="10.88"
     cy="918.76904"
     cx="614.82037"
     class="cls-3"
     data-name="Anthony_Aguilar"
     id="Anthony_Aguilar"
     />
  <circle
     r="10.88"
     cy="918.76904"
     cx="515.06036"
     class="cls-3"
     data-name="Brittany_Uhlorn"
     id="Brittany_Uhlorn"
     />
</svg>
