<?xml version="1.0" encoding="UTF-8" standalone="no"?>
<!-- Generator: Adobe Illustrator 24.0.0, SVG Export Plug-In . SVG Version: 6.00 Build 0)  -->

<svg
   xmlns:dc="http://purl.org/dc/elements/1.1/"
   xmlns:cc="http://creativecommons.org/ns#"
   xmlns:rdf="http://www.w3.org/1999/02/22-rdf-syntax-ns#"
   xmlns:svg="http://www.w3.org/2000/svg"
   xmlns="http://www.w3.org/2000/svg"
   xmlns:sodipodi="http://sodipodi.sourceforge.net/DTD/sodipodi-0.dtd"
   xmlns:inkscape="http://www.inkscape.org/namespaces/inkscape"
   version="1.1"
   id="Layer_1"
   x="0px"
   y="0px"
   viewBox="0 0 500.33402 509.86925"
   width="500.33401"
   height="509.86923"
   xml:space="preserve"
   sodipodi:docname="tricomplex.svg"
   inkscape:version="0.92.3 (2405546, 2018-03-11)"><metadata
   id="metadata1641"><rdf:RDF><cc:Work
       rdf:about=""><dc:format>image/svg+xml</dc:format><dc:type
         rdf:resource="http://purl.org/dc/dcmitype/StillImage" /><dc:title></dc:title></cc:Work></rdf:RDF></metadata><defs
   id="defs1639" /><sodipodi:namedview
   pagecolor="#ffffff"
   bordercolor="#666666"
   borderopacity="1"
   objecttolerance="10"
   gridtolerance="10"
   guidetolerance="10"
   inkscape:pageopacity="0"
   inkscape:pageshadow="2"
   inkscape:window-width="1920"
   inkscape:window-height="1052"
   id="namedview1637"
   showgrid="false"
   inkscape:zoom="0.83819255"
   inkscape:cx="-41.336418"
   inkscape:cy="231.3866"
   inkscape:window-x="0"
   inkscape:window-y="0"
   inkscape:window-maximized="1"
   inkscape:current-layer="Layer_1" />
<style
   type="text/css"
   id="style1628">
  .cls-3{fill:#ef4056;}
	.st0{fill:#54C0A2;stroke:#000000;stroke-miterlimit:10;}
	.st1{fill:#D9E021;stroke:#000000;stroke-miterlimit:10;}
	.st2{fill:#3A4DA1;stroke:#000000;stroke-miterlimit:10;}
</style>
<polygon
   class="st0"
   points="33.8,63.5 40.8,62.1 85.5,60.7 109.6,60.7 109.6,106.7 109.6,111.7 44.5,111.7 44.6,93.5 42.1,87.5 42.1,71.2 36,71.2 "
   id="polygon1630"
   transform="matrix(4.5442666,0,0,4.5442666,0.01024872,0.00252114)"
   style="fill:#6662cc;fill-opacity:1;stroke:#000000;stroke-miterlimit:10" />
<path
   class="st1"
   d="m 393.54373,275.83949 -65.89186,1.81771 1.8177,-68.16399 c 0,0 -34.53642,-24.08462 -30.90101,-51.80464 l -147.23423,17.26821 -3.18099,-7.72525 -7.27082,-8.63411 V 93.614413 H 121.7966 V 71.347506 C 85.442458,80.890466 83.624757,57.26028 83.624757,57.26028 L 82.261473,6.8189209 V 2.7290811 L 496.69859,2.2746544 495.78973,82.708169 h -24.99346 v 50.895781 h -35.44528 -5.45312 v 78.61581 h -41.35282 z"
   id="path1632"
   inkscape:connector-curvature="0"
   style="fill:#619dff;fill-opacity:1;stroke:#000000;stroke-width:4.5442667;stroke-miterlimit:10" />
<path
   class="st2"
   d="m 149.51662,174.95678 -3.18098,-7.72525 -7.27083,-8.63411 V 93.614413 H 119.97889 V 71.347506 C 83.624757,80.890466 81.807046,57.26028 81.807046,57.26028 L 79.989339,6.8189209 78.171633,2.7290811 v 0 H 4.5545153 L 2.282382,507.59709 H 170.87468 v -77.25253 h 31.35543 L 191.7783,397.17141 H 163.60384 V 323.5543 l -11.81508,-46.35152 v -6.36198 -93.15746 z"
   id="path1634"
   inkscape:connector-curvature="0"
   style="fill:#3a4da1;stroke:#000000;stroke-width:4.5442667;stroke-miterlimit:10" />
<g
   transform="translate(135.19255,290.45969)"
   id="student_1"><circle
     class="cls-3"
     cx="183.35001"
     cy="66.699997"
     data-name="Gregory West Fiddlers Dream"
     r="10.88"
     id="circle18"
      /></g><g
   transform="translate(223.47775,303.58317)"
   id="student_2"><circle
     class="cls-3"
     cx="183.35001"
     cy="66.699997"
     data-name="Gregory West Fiddlers Dream"
     r="10.88"
     id="circle18-6"
      /></g><g
   transform="translate(106.55951,-17.345474)"
   id="student_3"><circle
     class="cls-3"
     cx="183.35001"
     cy="66.699997"
     data-name="Gregory West Fiddlers Dream"
     r="10.88"
     id="circle18-5"
      /></g><g
   transform="translate(-106.99524,33.955388)"
   id="student_4"><circle
     class="cls-3"
     cx="183.35001"
     cy="66.699997"
     data-name="Gregory West Fiddlers Dream"
     r="10.88"
     id="circle18-62"
      /></g><g
   transform="translate(-98.643933,365.62142)"
   id="student_5"><circle
     class="cls-3"
     cx="183.35001"
     cy="66.699997"
     data-name="Gregory West Fiddlers Dream"
     r="10.88"
     id="circle18-1"
      /></g><g
   transform="translate(-141.59349,320.28578)"
   id="student_6"><circle
     class="cls-3"
     cx="183.35001"
     cy="66.699997"
     data-name="Gregory West Fiddlers Dream"
     r="10.88"
     id="circle18-7"
      /></g><g
   transform="translate(196.03776,-14.959387)"
   id="student_7"><circle
     class="cls-3"
     cx="183.35001"
     cy="66.699997"
     data-name="Gregory West Fiddlers Dream"
     r="10.88"
     id="circle18-9"
      /></g></svg>