<?xml version="1.0" encoding="utf-8"?>
<!-- Generated by IcoMoon.io -->
<!DOCTYPE svg PUBLIC "-//W3C//DTD SVG 1.1//EN" "http://www.w3.org/Graphics/SVG/1.1/DTD/svg11.dtd">
<svg version="1.1" xmlns="http://www.w3.org/2000/svg" xmlns:xlink="http://www.w3.org/1999/xlink" width="32" height="32" viewBox="0 0 32 32">
<g id="icomoon-ignore">
	<line stroke-width="1" x1="0" y1="496" x2="512" y2="496" stroke="#449FDB" opacity="0.3"></line>
</g>
	<path d="M21.979 16.031c0 3.302-2.677 5.979-5.979 5.979s-5.979-2.677-5.979-5.979c0-3.302 2.677-5.979 5.979-5.979s5.979 2.677 5.979 5.979z" fill="#333333"></path>
	<path d="M14 0h4.063v8h-4.063v-8z" fill="#333333"></path>
	<path d="M26.236 2.86l2.873 2.873-5.657 5.657-2.873-2.873 5.657-5.657z" fill="#333333"></path>
	<path d="M8.568 20.561l2.873 2.873-5.657 5.657-2.873-2.873 5.657-5.657z" fill="#333333"></path>
	<path d="M24 13.969h8v4.063h-8v-4.063z" fill="#333333"></path>
	<path d="M29.097 26.218l-2.873 2.873-5.657-5.657 2.873-2.873 5.657 5.657z" fill="#333333"></path>
	<path d="M11.441 8.56l-2.873 2.873-5.657-5.657 2.873-2.873 5.657 5.657z" fill="#333333"></path>
	<path d="M0 13.969h8v4.063h-8v-4.063z" fill="#333333"></path>
	<path d="M14 23.957h4.063v8h-4.063v-8z" fill="#333333"></path>
</svg>
